<?xml version="1.0" standalone="no"?>
<!DOCTYPE svg PUBLIC "-//W3C//DTD SVG 20010904//EN"
 "http://www.w3.org/TR/2001/REC-SVG-20010904/DTD/svg10.dtd">
<svg version="1.0" xmlns="http://www.w3.org/2000/svg"
 width="260.000000pt" height="260.000000pt" viewBox="0 0 260.000000 260.000000"
 preserveAspectRatio="xMidYMid meet">
<metadata>
Created by potrace 1.14, written by Peter Selinger 2001-2017
</metadata>
<g transform="translate(0.000000,260.000000) scale(0.100000,-0.100000)"
fill="#000000" stroke="none">
<path d="M546 2221 c-3 -3 -4 -327 -5 -719 l0 -712 72 0 c276 -2 468 0 475 4
4 2 7 101 7 220 0 119 2 216 5 217 3 1 185 2 405 3 440 2 449 3 550 64 132 79
221 196 252 332 12 47 5 168 -12 226 -24 82 -56 142 -108 200 -58 64 -107 98
-199 137 l-73 31 -683 1 c-375 1 -684 -1 -686 -4z m862 -168 l3 -63 -30 0
c-43 0 -177 38 -214 61 l-31 18 29 11 c36 14 170 36 210 36 30 -1 30 -1 33
-63z m211 47 c77 -16 91 -20 91 -30 0 -14 -153 -69 -210 -76 l-56 -6 2 63 c1
35 2 65 3 66 3 4 120 -7 170 -17z m-460 -85 c49 -25 155 -54 207 -56 l44 -3 0
-69 0 -70 -63 7 c-129 13 -282 70 -356 132 -18 15 -29 30 -24 35 4 4 35 21 68
38 50 26 62 28 75 17 8 -8 30 -21 49 -31z m689 5 c55 -29 57 -34 25 -59 -16
-11 -33 -24 -38 -28 -29 -22 -98 -53 -160 -73 -73 -22 -97 -27 -180 -36 l-50
-6 -1 66 c0 40 4 66 10 67 6 0 20 2 31 5 11 2 34 6 50 8 38 5 137 42 190 71
43 23 52 22 123 -15z m-871 -97 c88 -67 241 -122 378 -137 28 -2 51 -5 53 -5
1 -1 2 -9 2 -19 0 -16 -20 -17 -301 -17 l-301 0 6 37 c8 47 38 103 79 146 17
17 32 32 34 32 1 0 24 -16 50 -37z m993 5 c36 -37 89 -140 86 -166 -3 -16 -28
-17 -304 -17 -297 -1 -324 2 -304 31 4 5 14 10 22 10 114 1 290 58 385 123 39
27 73 49 76 50 4 0 21 -14 39 -31z m-562 -235 c-2 -9 -12 -17 -23 -19 -11 -1
-41 -5 -66 -7 -109 -13 -285 -83 -353 -142 -24 -21 -31 -23 -47 -11 -29 20
-89 99 -89 118 0 9 -4 20 -10 23 -5 3 -10 17 -10 31 l0 24 301 0 c274 0 300
-1 297 -17z m640 -20 c-6 -21 -17 -50 -24 -65 -20 -38 -74 -98 -88 -98 -7 0
-28 12 -47 26 -91 69 -253 128 -384 138 -27 3 -53 5 -57 5 -4 1 -5 8 -2 16 5
13 49 15 309 15 l303 0 -10 -37z m-513 -38 c75 -8 153 -30 225 -63 58 -27 140
-81 140 -92 0 -4 -28 -22 -61 -40 l-62 -33 -61 31 c-62 32 -148 58 -221 66
-22 3 -42 5 -45 5 -3 1 -5 27 -5 59 0 56 9 87 23 78 4 -2 34 -7 67 -11z m-125
-60 c0 -36 -3 -66 -7 -66 -5 -1 -21 -3 -36 -5 -48 -5 -137 -34 -200 -65 -73
-35 -78 -35 -131 -7 -81 44 -81 52 3 102 98 57 229 98 332 105 l39 2 0 -66z
m0 -166 l0 -61 -72 5 c-40 4 -90 10 -110 16 -21 5 -38 7 -38 5 0 -3 -10 0 -22
7 -20 11 -18 13 33 36 30 14 61 27 69 28 8 2 26 7 39 12 12 5 41 10 62 12 l39
2 0 -62z m168 46 c71 -17 145 -52 137 -64 -2 -5 -19 -12 -37 -15 -18 -3 -44
-9 -58 -12 -14 -3 -59 -8 -100 -11 l-75 -5 -1 61 0 61 35 0 c20 0 64 -7 99
-15z"/>
<path d="M1190 731 c-25 -10 -79 -35 -120 -56 -109 -57 -164 -55 -330 10 -110
43 -134 49 -200 48 -67 0 -85 -5 -169 -43 -84 -38 -100 -42 -145 -37 -31 4
-82 22 -130 47 -43 22 -81 39 -83 36 -11 -11 119 -83 167 -93 84 -17 96 -16
191 28 84 38 102 43 169 43 66 0 90 -6 200 -49 169 -65 220 -66 337 -7 179 91
213 93 408 17 39 -15 79 -31 90 -36 60 -28 147 -17 259 33 103 46 213 50 316
13 166 -59 217 -64 312 -29 24 8 51 18 61 21 9 3 17 9 17 14 0 5 5 9 10 9 15
0 55 39 47 46 -3 3 -21 -6 -41 -21 -47 -36 -130 -66 -193 -70 -53 -3 -81 3
-212 50 -57 20 -89 26 -147 24 -71 -2 -92 -8 -234 -62 -68 -26 -150 -30 -194
-9 -35 17 -158 63 -206 78 -59 18 -124 16 -180 -5z"/>
<path d="M1200 671 c-30 -10 -93 -37 -139 -60 -52 -25 -99 -41 -121 -41 -43 0
-149 26 -167 42 -7 6 -13 8 -13 4 0 -4 -13 0 -29 9 -64 33 -128 48 -196 48
-61 0 -82 -6 -158 -42 -65 -30 -100 -41 -136 -41 -26 0 -51 3 -55 8 -4 4 -11
7 -14 7 -15 0 -79 30 -111 51 -36 25 -67 22 -32 -2 55 -39 149 -77 201 -81 51
-5 64 -1 146 37 81 39 96 43 164 43 64 0 90 -6 176 -40 191 -76 235 -78 354
-18 166 84 230 92 345 45 37 -15 140 -55 145 -56 3 0 14 -5 25 -9 11 -5 49 -9
85 -9 54 0 79 6 150 39 75 34 96 39 172 42 80 2 97 -1 198 -36 128 -45 187
-48 282 -13 57 20 128 67 128 84 0 11 -32 -6 -54 -28 -22 -21 -120 -55 -181
-61 -42 -4 -70 2 -160 33 -99 35 -120 39 -205 39 -89 -1 -100 -3 -180 -40
-133 -61 -187 -57 -405 35 -73 30 -147 34 -215 11z"/>
<path d="M1215 616 c-22 -7 -80 -33 -130 -57 -81 -39 -97 -44 -160 -44 -59 0
-88 7 -180 43 -191 75 -234 75 -389 1 -45 -21 -84 -32 -110 -32 -45 1 -151 42
-197 75 -16 12 -31 19 -35 16 -10 -10 61 -57 124 -83 90 -36 137 -33 245 16
80 37 99 42 161 42 57 -1 88 -8 156 -36 141 -57 187 -69 238 -64 64 6 65 7
166 55 49 24 98 44 108 45 10 1 18 4 18 8 0 3 21 6 48 7 44 0 115 -21 262 -78
104 -40 178 -35 297 21 46 22 83 31 140 35 69 5 89 2 178 -26 55 -18 105 -36
110 -40 20 -16 159 -4 215 18 61 24 129 75 117 88 -4 5 -11 4 -15 -2 -18 -27
-119 -78 -177 -90 -53 -11 -110 -2 -223 35 -111 37 -130 40 -202 36 -64 -3
-93 -10 -157 -40 -115 -54 -194 -56 -298 -10 -43 19 -118 46 -130 46 -5 0 -15
5 -21 10 -19 16 -117 19 -159 5z"/>
<path d="M1235 561 c-34 -8 -189 -77 -221 -98 -37 -23 -122 -19 -204 12 -186
68 -213 76 -263 76 -70 0 -87 -5 -176 -46 -42 -20 -92 -38 -111 -39 -43 -4
-130 25 -192 63 -25 16 -49 27 -52 24 -10 -10 67 -60 128 -82 84 -31 136 -30
215 7 108 50 118 53 191 53 41 0 83 -10 165 -41 211 -81 226 -81 373 -12 120
56 137 63 171 69 39 7 126 -16 229 -60 86 -36 106 -41 177 -41 72 0 89 4 165
39 76 34 94 38 165 39 92 0 101 -2 213 -43 92 -34 125 -38 192 -26 80 14 200
78 200 107 0 6 -16 -2 -35 -16 -45 -35 -95 -56 -169 -72 -64 -13 -110 -6 -214
35 -126 50 -246 47 -364 -7 -124 -58 -174 -57 -328 6 -124 50 -202 66 -255 53z"/>
<path d="M1235 500 c-3 -4 -17 -10 -33 -13 -16 -3 -73 -27 -128 -54 -137 -66
-152 -65 -379 23 -132 50 -198 48 -325 -14 -57 -28 -87 -36 -125 -35 -52 1
-139 31 -187 66 -14 11 -32 17 -39 15 -17 -6 76 -62 137 -83 80 -28 129 -24
214 18 82 40 145 56 200 50 19 -2 88 -24 153 -49 193 -73 218 -73 365 -6 193
89 188 89 417 3 150 -57 210 -56 327 5 97 51 212 51 358 -1 122 -43 178 -46
268 -16 68 23 141 69 142 89 0 7 -22 -4 -50 -23 -27 -19 -53 -36 -57 -36 -5
-1 -12 -3 -18 -5 -94 -35 -159 -36 -240 -4 -93 35 -176 57 -218 55 -86 -4
-141 -17 -196 -44 -89 -45 -157 -56 -221 -34 -19 6 -73 26 -120 43 -47 18
-101 36 -120 42 -44 13 -119 18 -125 8z"/>
</g>
</svg>
